<svg width="154" height="50" viewBox="0 0 154 50" fill="none" xmlns="http://www.w3.org/2000/svg">
<g clip-path="url(#clip0_1320_298147)">
<path d="M41.0787 42.2336C42.3794 42.2336 43.5394 41.6339 44.3078 40.6915C47.7628 36.4026 49.8268 30.9445 49.8268 24.9975C49.8218 11.1934 38.6682 0 24.9134 0C11.1585 0 0 11.1934 0 25.0025C0 32.3808 3.18385 39.0132 8.24587 43.5894C8.98409 44.2496 9.95832 44.6528 11.028 44.6528H12.1428C15.6782 44.6528 18.6963 46.8753 19.8915 50.005C20.7252 45.5801 24.597 42.2387 29.2472 42.2387H41.0787V42.2336Z" fill="#FFD900"/>
<path d="M99.0361 29.6986V32.7981H114.388V39.6623H118.335V29.6986H99.0361Z" fill="#231815"/>
<path d="M122.87 18.4144H118.335V12.4271H114.388V28.7612H118.335V21.5593H122.87V18.4144Z" fill="#231815"/>
<path d="M109.903 20.4404C109.903 18.863 109.291 17.4166 108.251 16.2574H111.34V13.168H103.44V10.9102H99.4931V13.168H91.7996V16.2574H94.642C93.6276 17.4065 93.03 18.8378 93.03 20.4404C93.03 24.4572 96.8064 27.4357 101.467 27.4357C106.127 27.4357 109.903 24.3513 109.903 20.4404ZM96.8466 20.4052C96.8466 17.9961 98.9105 16.4036 101.462 16.4036C104.013 16.4036 106.077 18.0213 106.077 20.4052C106.077 22.789 104.008 24.4723 101.462 24.4723C98.9156 24.4723 96.8466 22.8142 96.8466 20.4052Z" fill="#231815"/>
<path d="M87.5461 12.4271H83.5989V39.6623H87.5461V12.4271Z" fill="#231815"/>
<path d="M77.5275 12.7396H62.698V15.8794H72.8572L61.543 29.3105L64.531 31.8002L77.5275 15.8794V12.7396Z" fill="#231815"/>
<path d="M69.6332 27.1333L76.8998 31.8002L79.0039 28.4538L72.0688 24.1497L69.6332 27.1333Z" fill="#231815"/>
<path d="M130.995 26.9872L138.493 31.8002L140.592 28.4537L133.235 23.8776L130.995 26.9872Z" fill="#231815"/>
<path d="M135.791 12.3364L123.066 29.4617L126.244 31.8002L138.709 14.4783L135.791 12.3364Z" fill="#231815"/>
<path d="M154 19.0948H149.144V12.4271H145.202V39.6623H149.144V22.2346H154V19.0948Z" fill="#231815"/>
</g>
<defs>
<clipPath id="clip0_1320_298147">
<rect width="154" height="50" fill="white"/>
</clipPath>
</defs>
</svg>
