<svg width="137" height="23" viewBox="0 0 137 23" fill="none" xmlns="http://www.w3.org/2000/svg">
<path d="M0.800781 9.73438C0.800781 8.91406 0.885417 8.11979 1.05469 7.35156C1.23698 6.57031 1.51693 5.80859 1.89453 5.06641C2.24609 4.33724 2.6888 3.67318 3.22266 3.07422C3.75651 2.46224 4.375 1.92188 5.07812 1.45312C5.76823 0.984375 6.54297 0.632812 7.40234 0.398438C8.26172 0.164062 9.20573 0.0338542 10.2344 0.0078125C10.8724 0.0078125 11.4974 0.0533854 12.1094 0.144531C12.7344 0.235677 13.3398 0.365885 13.9258 0.535156C14.5117 0.730469 15.0586 0.971354 15.5664 1.25781C16.0872 1.53125 16.5755 1.85677 17.0312 2.23438L16.6211 2.95703C16.4779 3.20443 16.3086 3.41276 16.1133 3.58203C15.918 3.7513 15.6966 3.875 15.4492 3.95312C15.1758 4.05729 14.9023 4.10286 14.6289 4.08984C14.3685 4.0638 14.1016 3.97917 13.8281 3.83594C13.5156 3.70573 13.2096 3.58854 12.9102 3.48438C12.6107 3.38021 12.3112 3.28906 12.0117 3.21094C11.6992 3.15885 11.3932 3.11979 11.0938 3.09375C10.7943 3.05469 10.5078 3.03516 10.2344 3.03516C9.64844 3.04818 9.09505 3.13281 8.57422 3.28906C8.06641 3.43229 7.59115 3.64062 7.14844 3.91406C6.69271 4.21354 6.28255 4.5651 5.91797 4.96875C5.56641 5.35938 5.26693 5.80208 5.01953 6.29688C4.74609 6.80469 4.54427 7.34505 4.41406 7.91797C4.28385 8.49089 4.21875 9.09635 4.21875 9.73438C4.21875 10.3984 4.28385 11.0234 4.41406 11.6094C4.55729 12.1823 4.76562 12.7096 5.03906 13.1914C5.29948 13.6992 5.60547 14.1419 5.95703 14.5195C6.32161 14.8971 6.73828 15.2227 7.20703 15.4961C7.64974 15.7695 8.13151 15.9779 8.65234 16.1211C9.17318 16.2643 9.72656 16.3359 10.3125 16.3359C10.5859 16.3359 10.8659 16.3229 11.1523 16.2969C11.4518 16.2708 11.7578 16.2188 12.0703 16.1406C12.3568 16.0885 12.6562 16.0169 12.9688 15.9258C13.2812 15.8216 13.5938 15.6914 13.9062 15.5352C14.1536 15.418 14.401 15.3529 14.6484 15.3398C14.9089 15.3138 15.1693 15.3333 15.4297 15.3984C15.6641 15.4766 15.8789 15.6068 16.0742 15.7891C16.2826 15.9583 16.4648 16.1667 16.6211 16.4141L17.0312 17.1367C16.5755 17.5273 16.0872 17.8659 15.5664 18.1523C15.0586 18.4388 14.5247 18.6667 13.9648 18.8359C13.3789 19.0312 12.7799 19.168 12.168 19.2461C11.569 19.3372 10.9505 19.3763 10.3125 19.3633C9.29688 19.3633 8.35938 19.2396 7.5 18.9922C6.65365 18.7578 5.87891 18.4062 5.17578 17.9375C4.45964 17.4818 3.82812 16.9609 3.28125 16.375C2.7474 15.776 2.29818 15.1055 1.93359 14.3633C1.54297 13.6471 1.25651 12.9049 1.07422 12.1367C0.891927 11.3555 0.800781 10.5547 0.800781 9.73438ZM17.8227 22.9961H17.4906V21.9609C17.4906 21.6875 17.5167 21.4466 17.5688 21.2383C17.6208 21.043 17.699 20.8672 17.8031 20.7109C17.8813 20.5547 17.9854 20.4115 18.1156 20.2812C18.2458 20.151 18.3891 20.0404 18.5453 19.9492C18.8708 19.7409 19.1573 19.5195 19.4047 19.2852C19.6651 19.0638 19.893 18.8359 20.0883 18.6016C20.2576 18.3802 20.4008 18.1328 20.518 17.8594C20.6482 17.5859 20.7523 17.293 20.8305 16.9805C20.8826 16.681 20.9281 16.3424 20.9672 15.9648C21.0063 15.5872 21.0258 15.1641 21.0258 14.6953V3.5625H17.5688V2.70312C17.5688 2.42969 17.6143 2.17578 17.7055 1.94141C17.7966 1.70703 17.9333 1.49219 18.1156 1.29688C18.2719 1.11458 18.4672 0.977865 18.7016 0.886719C18.9359 0.782552 19.2029 0.723958 19.5023 0.710938H27.8227V1.74609C27.7966 2.05859 27.738 2.32552 27.6469 2.54688C27.5557 2.76823 27.432 2.95052 27.2758 3.09375C27.0935 3.25 26.8982 3.36719 26.6898 3.44531C26.4945 3.52344 26.2797 3.5625 26.0453 3.5625H24.3656V15.3203C24.3786 16.1276 24.2615 16.8958 24.0141 17.625C23.7797 18.3672 23.4151 19.0703 22.9203 19.7344C22.4125 20.3984 21.7289 20.9974 20.8695 21.5312C20.0232 22.0781 19.0076 22.5664 17.8227 22.9961ZM42.7258 18.6797H35.8508V2.37109C35.8378 2.09766 35.8703 1.85677 35.9484 1.64844C36.0396 1.4401 36.1763 1.25781 36.3586 1.10156C36.5148 0.971354 36.7232 0.873698 36.9836 0.808594C37.257 0.730469 37.5695 0.691406 37.9211 0.691406H42.0812C43.0578 0.704427 43.9237 0.821615 44.6789 1.04297C45.4471 1.26432 46.1047 1.58984 46.6516 2.01953C47.1984 2.46224 47.6086 2.97656 47.882 3.5625C48.1555 4.13542 48.2987 4.77995 48.3117 5.49609C48.3117 5.96484 48.2661 6.40104 48.175 6.80469C48.0839 7.19531 47.9536 7.54688 47.7844 7.85938C47.6021 8.19792 47.3807 8.4974 47.1203 8.75781C46.8729 9.00521 46.593 9.22005 46.2805 9.40234C46.7492 9.58464 47.1659 9.80599 47.5305 10.0664C47.9081 10.3138 48.2336 10.6133 48.507 10.9648C48.7544 11.3294 48.9432 11.7266 49.0734 12.1562C49.2036 12.5729 49.2687 13.0221 49.2687 13.5039C49.2557 14.3372 49.0995 15.0729 48.8 15.7109C48.5135 16.349 48.0839 16.8893 47.5109 17.332C46.925 17.7878 46.2284 18.1263 45.4211 18.3477C44.6268 18.569 43.7284 18.6797 42.7258 18.6797ZM42.7258 11.082H39.1906V16.5312C39.2687 16.4141 39.3599 16.3034 39.4641 16.1992C39.5682 16.0951 39.6919 16.0039 39.8352 15.9258C39.9654 15.8737 40.1086 15.8281 40.2648 15.7891C40.4211 15.75 40.5969 15.7305 40.7922 15.7305H42.4719C43.0057 15.7305 43.4745 15.6849 43.8781 15.5938C44.2948 15.5026 44.6464 15.3594 44.9328 15.1641C45.2062 14.9948 45.4081 14.7539 45.5383 14.4414C45.6815 14.1289 45.7596 13.7578 45.7727 13.3281C45.7727 12.9635 45.7076 12.6445 45.5773 12.3711C45.4602 12.0846 45.2844 11.8438 45.05 11.6484C44.8026 11.4792 44.4836 11.349 44.093 11.2578C43.7023 11.1536 43.2466 11.0951 42.7258 11.082ZM39.1906 9.14844C39.2687 8.99219 39.3664 8.86198 39.4836 8.75781C39.6008 8.64062 39.7375 8.54297 39.8937 8.46484C40.05 8.41276 40.2128 8.3737 40.382 8.34766C40.5643 8.32161 40.7596 8.30859 40.968 8.30859H42.3937C42.8104 8.26953 43.175 8.19141 43.4875 8.07422C43.8 7.95703 44.0669 7.78776 44.2883 7.56641C44.4836 7.37109 44.6333 7.13672 44.7375 6.86328C44.8417 6.57682 44.8937 6.2513 44.8937 5.88672C44.8807 5.47005 44.8091 5.11849 44.6789 4.83203C44.5487 4.53255 44.3664 4.29167 44.132 4.10938C43.8716 3.95312 43.5591 3.83594 43.1945 3.75781C42.8299 3.67969 42.4068 3.64062 41.925 3.64062H39.1906V9.14844ZM52.3258 18.6602V2.39062C52.3128 2.11719 52.3453 1.8763 52.4234 1.66797C52.5016 1.45964 52.6253 1.27734 52.7945 1.12109C52.9508 0.990885 53.1526 0.893229 53.4 0.828125C53.6604 0.75 53.9664 0.710938 54.318 0.710938H55.6656V16.9805C55.6656 17.2669 55.6201 17.5143 55.5289 17.7227C55.4378 17.931 55.3141 18.1003 55.1578 18.2305C54.9755 18.3737 54.7607 18.4779 54.5133 18.543C54.2659 18.6211 53.9859 18.6602 53.6734 18.6602H52.3258ZM77.6484 9.73438C77.6484 10.5547 77.5508 11.3555 77.3555 12.1367C77.1602 12.9049 76.8737 13.6471 76.4961 14.3633C76.1055 15.1055 75.6302 15.776 75.0703 16.375C74.5234 16.9609 73.8919 17.4818 73.1758 17.9375C72.4466 18.4062 71.6458 18.7578 70.7734 18.9922C69.9141 19.2396 68.9831 19.3633 67.9805 19.3633C66.9648 19.3633 66.0208 19.2396 65.1484 18.9922C64.2891 18.7578 63.5078 18.4062 62.8047 17.9375C62.0755 17.4818 61.431 16.9609 60.8711 16.375C60.3242 15.776 59.862 15.1055 59.4844 14.3633C59.0938 13.6471 58.8008 12.9049 58.6055 12.1367C58.4102 11.3555 58.3125 10.5547 58.3125 9.73438C58.3125 8.91406 58.4102 8.11979 58.6055 7.35156C58.8008 6.57031 59.0938 5.80859 59.4844 5.06641C59.862 4.33724 60.3242 3.67318 60.8711 3.07422C61.431 2.46224 62.0755 1.92188 62.8047 1.45312C63.5078 0.984375 64.2891 0.632812 65.1484 0.398438C66.0208 0.164062 66.9648 0.0338542 67.9805 0.0078125C68.9831 0.0338542 69.9141 0.164062 70.7734 0.398438C71.6458 0.632812 72.4466 0.984375 73.1758 1.45312C73.8919 1.92188 74.5234 2.46224 75.0703 3.07422C75.6302 3.67318 76.1055 4.33724 76.4961 5.06641C76.8737 5.80859 77.1602 6.57031 77.3555 7.35156C77.5508 8.11979 77.6484 8.91406 77.6484 9.73438ZM61.7305 9.73438C61.7305 10.3464 61.7956 10.9258 61.9258 11.4727C62.056 12.0195 62.2513 12.5339 62.5117 13.0156C62.7591 13.5234 63.0651 13.9792 63.4297 14.3828C63.7943 14.7734 64.2109 15.112 64.6797 15.3984C65.1484 15.7109 65.6562 15.9453 66.2031 16.1016C66.75 16.2578 67.349 16.3359 68 16.3359C68.625 16.3359 69.2109 16.2578 69.7578 16.1016C70.3177 15.9453 70.832 15.7174 71.3008 15.418C71.7565 15.1315 72.1602 14.7865 72.5117 14.3828C72.8763 13.9792 73.1888 13.5234 73.4492 13.0156C73.6966 12.5339 73.8854 12.0195 74.0156 11.4727C74.1458 10.9258 74.2174 10.3464 74.2305 9.73438C74.2174 9.14844 74.1458 8.57552 74.0156 8.01562C73.8854 7.45573 73.6966 6.92188 73.4492 6.41406C73.1888 5.91927 72.8763 5.47005 72.5117 5.06641C72.1602 4.66276 71.7565 4.30469 71.3008 3.99219C70.832 3.69271 70.3177 3.46484 69.7578 3.30859C69.2109 3.15234 68.625 3.0612 68 3.03516C67.349 3.0612 66.75 3.15234 66.2031 3.30859C65.6562 3.46484 65.1484 3.69271 64.6797 3.99219C64.2109 4.30469 63.7943 4.66276 63.4297 5.06641C63.0651 5.47005 62.7591 5.91927 62.5117 6.41406C62.2513 6.92188 62.056 7.45573 61.9258 8.01562C61.7956 8.57552 61.7305 9.14844 61.7305 9.73438ZM80.3148 18.6602V2.39062C80.3018 2.11719 80.3344 1.8763 80.4125 1.66797C80.5036 1.45964 80.6404 1.27734 80.8227 1.12109C80.9789 0.990885 81.1872 0.893229 81.4477 0.828125C81.7211 0.75 82.0336 0.710938 82.3852 0.710938H82.8734L91.5648 11.3359C91.656 11.4792 91.7471 11.6159 91.8383 11.7461C91.9424 11.8763 92.0466 12 92.1508 12.1172C92.2289 12.2604 92.307 12.4036 92.3852 12.5469C92.4633 12.6901 92.5414 12.8333 92.6195 12.9766V2.39062C92.6065 2.11719 92.6391 1.8763 92.7172 1.66797C92.7953 1.45964 92.9125 1.28385 93.0687 1.14062C93.225 1.01042 93.4203 0.91276 93.6547 0.847656C93.8891 0.769531 94.169 0.723958 94.4945 0.710938H95.9594V16.9805C95.9594 17.2669 95.9203 17.5143 95.8422 17.7227C95.7771 17.931 95.6664 18.1003 95.5102 18.2305C95.3409 18.3867 95.126 18.4974 94.8656 18.5625C94.6182 18.6276 94.3187 18.6602 93.9672 18.6602H93.4008L84.5336 7.89844C84.4424 7.80729 84.3578 7.70964 84.2797 7.60547C84.2016 7.48828 84.1299 7.37109 84.0648 7.25391C83.9867 7.16276 83.9086 7.0651 83.8305 6.96094C83.7654 6.84375 83.7068 6.72656 83.6547 6.60938V16.9805C83.6547 17.2669 83.6091 17.5143 83.518 17.7227C83.4398 17.931 83.3227 18.1003 83.1664 18.2305C82.9841 18.3737 82.7693 18.4779 82.5219 18.543C82.2875 18.6211 82.0141 18.6602 81.7016 18.6602H80.3148ZM111.887 18.6602L110.266 14.3047C110.162 14.3698 110.058 14.4219 109.954 14.4609C109.85 14.5 109.752 14.526 109.661 14.5391C109.544 14.5781 109.433 14.6042 109.329 14.6172C109.225 14.6172 109.121 14.6172 109.016 14.6172H103.977L104.524 13.0156C104.615 12.7682 104.739 12.5534 104.895 12.3711C105.052 12.1758 105.227 12.0195 105.423 11.9023C105.605 11.7982 105.807 11.7201 106.028 11.668C106.249 11.6159 106.497 11.5898 106.77 11.5898H109.29L107.083 5.33984C107.005 5.17057 106.94 5.00781 106.887 4.85156C106.848 4.68229 106.809 4.51953 106.77 4.36328C106.731 4.23307 106.692 4.09635 106.653 3.95312C106.627 3.8099 106.608 3.66016 106.595 3.50391H106.536L101.887 17C101.77 17.2734 101.621 17.5143 101.438 17.7227C101.269 17.931 101.067 18.1003 100.833 18.2305C100.572 18.3867 100.305 18.4974 100.032 18.5625C99.7586 18.6276 99.4721 18.6602 99.1727 18.6602H97.9031V18.3477L103.255 3.01562C103.424 2.53385 103.606 2.1237 103.802 1.78516C104.01 1.44661 104.225 1.17969 104.446 0.984375C104.641 0.815104 104.882 0.684896 105.169 0.59375C105.455 0.502604 105.774 0.457031 106.126 0.457031H108.841L114.915 17.1562V17.4688C114.915 17.625 114.882 17.7682 114.817 17.8984C114.765 18.0286 114.68 18.1523 114.563 18.2695C114.433 18.3997 114.257 18.4974 114.036 18.5625C113.815 18.6276 113.548 18.6602 113.235 18.6602H111.887ZM123.577 18.8164H121.019L115.277 2.21484V1.90234C115.264 1.75911 115.29 1.6224 115.355 1.49219C115.433 1.34896 115.55 1.21224 115.706 1.08203C115.849 0.964844 116.038 0.880208 116.273 0.828125C116.507 0.763021 116.787 0.723958 117.113 0.710938H118.304L123.343 15.7109H123.499C123.499 15.6328 123.506 15.5612 123.519 15.4961C123.545 15.418 123.577 15.3398 123.616 15.2617C123.629 15.2096 123.642 15.151 123.655 15.0859C123.682 15.0078 123.708 14.9297 123.734 14.8516L127.425 2.54688C127.503 2.27344 127.627 2.02604 127.796 1.80469C127.965 1.58333 128.167 1.38151 128.402 1.19922C128.636 1.04297 128.896 0.925781 129.183 0.847656C129.469 0.75651 129.788 0.710938 130.14 0.710938H131.488V1.02344L126.702 16.2578C126.507 16.7656 126.299 17.1888 126.077 17.5273C125.869 17.8789 125.648 18.1393 125.413 18.3086C125.153 18.5039 124.866 18.6406 124.554 18.7188C124.254 18.8099 123.929 18.8424 123.577 18.8164ZM133.431 18.6602V2.39062C133.418 2.11719 133.451 1.8763 133.529 1.66797C133.607 1.45964 133.731 1.27734 133.9 1.12109C134.056 0.990885 134.258 0.893229 134.505 0.828125C134.766 0.75 135.072 0.710938 135.423 0.710938H136.771V16.9805C136.771 17.2669 136.726 17.5143 136.634 17.7227C136.543 17.931 136.42 18.1003 136.263 18.2305C136.081 18.3737 135.866 18.4779 135.619 18.543C135.371 18.6211 135.091 18.6602 134.779 18.6602H133.431Z" fill="white"/>
</svg>
