<?xml version="1.0" encoding="UTF-8"?>
<!DOCTYPE svg PUBLIC "-//W3C//DTD SVG 1.1//EN" "http://www.w3.org/Graphics/SVG/1.1/DTD/svg11.dtd">
<svg xmlns="http://www.w3.org/2000/svg" version="1.1" width="160px" height="45px" style="shape-rendering:geometricPrecision; text-rendering:geometricPrecision; image-rendering:optimizeQuality; fill-rule:evenodd; clip-rule:evenodd" xmlns:xlink="http://www.w3.org/1999/xlink">
<g><path style="opacity:0.033" fill="#030107" d="M 37.5,17.5 C 36.5,17.5 35.5,17.5 34.5,17.5C 34.1795,22.6946 34.5128,27.6946 35.5,32.5C 35.7329,34.0618 36.3995,35.3951 37.5,36.5C 35.9826,36.4894 34.8159,35.8228 34,34.5C 33.6667,31.1667 33.3333,27.8333 33,24.5C 31.0624,23.1398 29.3957,23.4732 28,25.5C 27.8238,29.6877 27.3238,33.6877 26.5,37.5C 26.5,33.5 26.5,29.5 26.5,25.5C 26.4142,24.5041 26.7476,23.6708 27.5,23C 29.4727,22.5045 31.4727,22.3379 33.5,22.5C 33.5,20.8333 33.5,19.1667 33.5,17.5C 31.0637,17.317 28.897,17.9837 27,19.5C 25.3796,17.368 23.5463,17.0347 21.5,18.5C 20.5098,24.6446 20.1765,30.9779 20.5,37.5C 19.8333,37.5 19.1667,37.5 18.5,37.5C 18.5,36.1667 18.5,34.8333 18.5,33.5C 16.8561,33.7135 15.3561,33.3802 14,32.5C 13.5017,29.1832 13.335,25.8499 13.5,22.5C 15.1667,22.5 16.8333,22.5 18.5,22.5C 18.5,20.8333 18.5,19.1667 18.5,17.5C 16.8333,17.5 15.1667,17.5 13.5,17.5C 13.5,14.5 13.5,11.5 13.5,8.5C 11.8333,8.5 10.1667,8.5 8.5,8.5C 10.1016,6.92606 12.1016,6.25939 14.5,6.5C 14.5,9.83333 14.5,13.1667 14.5,16.5C 20.2289,16.7877 25.8955,16.4544 31.5,15.5C 33.6568,16.0505 35.6568,16.7171 37.5,17.5 Z M 18.5,22.5 C 19.4767,25.2869 19.81,28.2869 19.5,31.5C 17.8333,31.5 16.1667,31.5 14.5,31.5C 14.3359,28.8127 14.5026,26.146 15,23.5C 16.313,24.2871 17.4797,23.9538 18.5,22.5 Z"/></g>
<g><path style="opacity:0.015" fill="#04020c" d="M 153.5,15.5 C 153.808,13.076 153.474,10.7427 152.5,8.5C 150.907,10.6603 149.24,10.827 147.5,9C 145.19,8.50335 142.857,8.33669 140.5,8.5C 141.514,7.23532 143.014,6.56865 145,6.5C 148.245,7.2541 151.412,7.42076 154.5,7C 155.108,8.23101 155.441,9.56435 155.5,11C 155.693,13.0081 155.026,14.5081 153.5,15.5 Z"/></g>
<g><path style="opacity:0.994" fill="#5d3ae4" d="M 8.5,8.5 C 10.1667,8.5 11.8333,8.5 13.5,8.5C 13.5,11.5 13.5,14.5 13.5,17.5C 15.1667,17.5 16.8333,17.5 18.5,17.5C 18.5,19.1667 18.5,20.8333 18.5,22.5C 16.8333,22.5 15.1667,22.5 13.5,22.5C 13.335,25.8499 13.5017,29.1832 14,32.5C 15.3561,33.3802 16.8561,33.7135 18.5,33.5C 18.5,34.8333 18.5,36.1667 18.5,37.5C 15.0148,39.0537 11.8482,38.3871 9,35.5C 8.51722,34.552 8.35055,33.552 8.5,32.5C 8.5,29.1667 8.5,25.8333 8.5,22.5C 7.16667,22.5 5.83333,22.5 4.5,22.5C 4.5,21.8333 4.5,21.1667 4.5,20.5C 4.5,19.8333 4.5,19.1667 4.5,18.5C 5.83333,18.5 7.16667,18.5 8.5,18.5C 8.5,17.5 8.5,16.5 8.5,15.5C 8.5,13.1667 8.5,10.8333 8.5,8.5 Z"/></g>
<g><path style="opacity:0.884" fill="#5f3ceb" d="M 92.5,8.5 C 94.1667,8.5 95.8333,8.5 97.5,8.5C 97.5,17.1667 97.5,25.8333 97.5,34.5C 97.5,35.1667 97.5,35.8333 97.5,36.5C 97.5,36.8333 97.5,37.1667 97.5,37.5C 95.2341,37.8588 93.4007,37.1922 92,35.5C 87.8904,39.2644 83.7238,39.2644 79.5,35.5C 79.5,34.8333 79.1667,34.5 78.5,34.5C 78.5,34.1667 78.5,33.8333 78.5,33.5C 76.4617,29.9796 76.1284,26.3129 77.5,22.5C 78.9981,19.6691 81.3315,18.0025 84.5,17.5C 87.2724,17.22 89.7724,17.8866 92,19.5C 92.498,16.5184 92.6646,13.5184 92.5,10.5C 92.5,9.83333 92.5,9.16667 92.5,8.5 Z M 85.5,23.5 C 92.5736,25.2612 93.0736,27.9279 87,31.5C 82.8782,29.6135 82.3782,26.9468 85.5,23.5 Z"/></g>
<g><path style="opacity:0.021" fill="#020005" d="M 92.5,10.5 C 92.6646,13.5184 92.498,16.5184 92,19.5C 89.7724,17.8866 87.2724,17.22 84.5,17.5C 86.6074,16.5318 88.9407,16.1984 91.5,16.5C 91.2053,14.2646 91.5386,12.2646 92.5,10.5 Z"/></g>
<g><path style="opacity:0.975" fill="#5a39df" d="M 140.5,8.5 C 142.857,8.33669 145.19,8.50335 147.5,9C 149.24,10.827 150.907,10.6603 152.5,8.5C 153.474,10.7427 153.808,13.076 153.5,15.5C 152.069,15.1193 151.236,14.1193 151,12.5C 150,13.8333 149,13.8333 148,12.5C 147.751,13.624 147.251,14.624 146.5,15.5C 145.833,13.8333 145.167,12.1667 144.5,10.5C 143.614,11.325 143.281,12.325 143.5,13.5C 143.5,14.1667 143.5,14.8333 143.5,15.5C 142.167,13.8333 140.833,12.1667 139.5,10.5C 139.328,9.50838 139.662,8.84171 140.5,8.5 Z"/></g>
<g><path style="opacity:0.012" fill="#0b0415" d="M 139.5,10.5 C 140.833,12.1667 142.167,13.8333 143.5,15.5C 144.833,14.8333 144.833,14.1667 143.5,13.5C 143.281,12.325 143.614,11.325 144.5,10.5C 145.167,12.1667 145.833,13.8333 146.5,15.5C 147.251,14.624 147.751,13.624 148,12.5C 149,13.8333 150,13.8333 151,12.5C 151.236,14.1193 152.069,15.1193 153.5,15.5C 152.516,18.0704 151.349,18.0704 150,15.5C 147.539,16.2181 145.039,16.8847 142.5,17.5C 140.887,15.5073 139.887,13.174 139.5,10.5 Z"/></g>
<g><path style="opacity:0.027" fill="#020005" d="M 63.5,17.5 C 56.9467,19.909 54.4467,24.5756 56,31.5C 57.0591,33.6592 58.5591,35.3259 60.5,36.5C 57.3579,36.2007 55.1912,34.5341 54,31.5C 53.8091,33.7078 53.3091,35.7078 52.5,37.5C 52.5,37.1667 52.5,36.8333 52.5,36.5C 52.5,30.1667 52.5,23.8333 52.5,17.5C 50.5853,17.2155 48.9187,17.5489 47.5,18.5C 46.9569,18.44 46.6236,18.1067 46.5,17.5C 48.7427,16.5258 51.076,16.1924 53.5,16.5C 53.3367,18.8568 53.5034,21.1902 54,23.5C 55.9795,18.9246 59.1462,16.9246 63.5,17.5 Z"/></g>
<g><path style="opacity:0.024" fill="#05020d" d="M 128.5,17.5 C 122.027,21.9315 120.861,27.5982 125,34.5C 126.876,35.6087 128.709,36.6087 130.5,37.5C 126.491,38.3983 123.658,36.7317 122,32.5C 121.044,33.5786 120.211,34.7453 119.5,36C 118.563,36.6917 117.897,36.525 117.5,35.5C 123.869,23.3679 120.202,17.5345 106.5,18C 100.766,21.1801 98.933,26.0134 101,32.5C 102.73,34.4019 104.563,36.0686 106.5,37.5C 103.478,37.5718 101.312,36.2385 100,33.5C 99.8784,35.437 99.045,36.7703 97.5,37.5C 97.5,37.1667 97.5,36.8333 97.5,36.5C 98.8333,35.8333 98.8333,35.1667 97.5,34.5C 97.5,25.8333 97.5,17.1667 97.5,8.5C 95.8333,8.5 94.1667,8.5 92.5,8.5C 94.1933,6.2336 96.3599,5.90026 99,7.5C 99.3333,12.1667 99.6667,16.8333 100,21.5C 105.318,16.0783 111.484,15.0783 118.5,18.5C 119.48,19.9814 120.647,21.3147 122,22.5C 123.159,19.5066 125.325,17.8399 128.5,17.5 Z M 109.5,23.5 C 114.305,24.5995 115.305,27.0995 112.5,31C 109.186,32.1647 107.186,30.9981 106.5,27.5C 107.172,25.8405 108.172,24.5072 109.5,23.5 Z"/></g>
<g><path style="opacity:0.008" fill="#010004" d="M 128.5,17.5 C 131.64,16.3592 134.973,16.1925 138.5,17C 139.833,17.6667 140.833,18.6667 141.5,20C 140.906,20.4643 140.239,20.631 139.5,20.5C 138.942,19.2101 137.942,18.3768 136.5,18C 133.854,17.5026 131.187,17.3359 128.5,17.5 Z"/></g>
<g><path style="opacity:0.009" fill="#140c1f" d="M 8.5,15.5 C 8.5,16.5 8.5,17.5 8.5,18.5C 7.16667,18.5 5.83333,18.5 4.5,18.5C 3.16667,19.1667 3.16667,19.8333 4.5,20.5C 4.5,21.1667 4.5,21.8333 4.5,22.5C 2.74395,21.4479 2.07729,19.7812 2.5,17.5C 4.85834,17.7475 6.85834,17.0808 8.5,15.5 Z"/></g>
<g><path style="opacity:0.996" fill="#603def" d="M 26.5,25.5 C 25.5184,28.9619 25.185,32.6286 25.5,36.5C 24.1667,36.5 22.8333,36.5 21.5,36.5C 21.5,30.5 21.5,24.5 21.5,18.5C 23.5463,17.0347 25.3796,17.368 27,19.5C 28.897,17.9837 31.0637,17.317 33.5,17.5C 33.5,19.1667 33.5,20.8333 33.5,22.5C 31.4727,22.3379 29.4727,22.5045 27.5,23C 26.7476,23.6708 26.4142,24.5041 26.5,25.5 Z"/></g>
<g><path style="opacity:0.838" fill="#5b3ae2" d="M 63.5,17.5 C 67.8843,16.5755 71.2176,17.9088 73.5,21.5C 74.388,24.0545 74.7214,26.7212 74.5,29.5C 69.7863,29.1734 65.1196,29.5067 60.5,30.5C 63.5807,34.1344 67.0807,34.4677 71,31.5C 71.9021,31.7432 72.7354,32.0766 73.5,32.5C 74.8333,33.5 74.8333,34.5 73.5,35.5C 73.1667,35.5 72.8333,35.5 72.5,35.5C 71.8333,35.5 71.5,35.8333 71.5,36.5C 67.7316,37.7866 64.0649,37.7866 60.5,36.5C 58.5591,35.3259 57.0591,33.6592 56,31.5C 54.4467,24.5756 56.9467,19.909 63.5,17.5 Z"/></g>
<g><path style="opacity:0.82" fill="#5e3be9" d="M 117.5,35.5 C 113.953,37.6463 110.287,38.313 106.5,37.5C 104.563,36.0686 102.73,34.4019 101,32.5C 98.933,26.0134 100.766,21.1801 106.5,18C 120.202,17.5345 123.869,23.3679 117.5,35.5 Z M 109.5,23.5 C 108.172,24.5072 107.172,25.8405 106.5,27.5C 107.186,30.9981 109.186,32.1647 112.5,31C 115.305,27.0995 114.305,24.5995 109.5,23.5 Z"/></g>
<g><path style="opacity:0.946" fill="#5b3ae2" d="M 128.5,17.5 C 131.187,17.3359 133.854,17.5026 136.5,18C 137.942,18.3768 138.942,19.2101 139.5,20.5C 139.5,20.8333 139.5,21.1667 139.5,21.5C 137.521,23.7173 135.187,24.0507 132.5,22.5C 127.083,24.0034 126.083,27.1701 129.5,32C 131.712,32.7891 133.712,32.6225 135.5,31.5C 138.741,32.0374 139.741,33.7041 138.5,36.5C 135.946,37.388 133.279,37.7214 130.5,37.5C 128.709,36.6087 126.876,35.6087 125,34.5C 120.861,27.5982 122.027,21.9315 128.5,17.5 Z"/></g>
<g><path style="opacity:0.762" fill="#2a1a67" d="M 37.5,17.5 C 39.1788,17.2852 40.1788,17.9519 40.5,19.5C 40.5,23.1667 40.5,26.8333 40.5,30.5C 39.5166,26.7016 39.1832,22.7016 39.5,18.5C 38.1667,18.5 36.8333,18.5 35.5,18.5C 35.5,23.1667 35.5,27.8333 35.5,32.5C 34.5128,27.6946 34.1795,22.6946 34.5,17.5C 35.5,17.5 36.5,17.5 37.5,17.5 Z"/></g>
<g><path style="opacity:0.913" fill="#613def" d="M 52.5,36.5 C 50.549,36.7733 49.049,36.1066 48,34.5C 46.955,35.3734 46.1217,36.3734 45.5,37.5C 44.3754,38.0141 43.2087,38.3474 42,38.5C 40.3775,37.9011 38.8775,37.2344 37.5,36.5C 36.3995,35.3951 35.7329,34.0618 35.5,32.5C 35.5,27.8333 35.5,23.1667 35.5,18.5C 36.8333,18.5 38.1667,18.5 39.5,18.5C 39.1832,22.7016 39.5166,26.7016 40.5,30.5C 42.1377,33.874 44.3043,34.2073 47,31.5C 47.4988,27.5138 47.6655,23.5138 47.5,19.5C 47.5,19.1667 47.5,18.8333 47.5,18.5C 48.9187,17.5489 50.5853,17.2155 52.5,17.5C 52.5,23.8333 52.5,30.1667 52.5,36.5 Z"/></g>
<g><path style="opacity:0.024" fill="#090410" d="M 40.5,19.5 C 41.3227,22.977 41.8227,26.6437 42,30.5C 43,31.8333 44,31.8333 45,30.5C 45.1077,26.5349 45.941,22.8683 47.5,19.5C 47.6655,23.5138 47.4988,27.5138 47,31.5C 44.3043,34.2073 42.1377,33.874 40.5,30.5C 40.5,26.8333 40.5,23.1667 40.5,19.5 Z"/></g>
<g><path style="opacity:0.021" fill="#05020b" d="M 62.5,21.5 C 64.5273,21.3379 66.5273,21.5045 68.5,22C 69.3366,23.0113 69.67,24.1779 69.5,25.5C 66.4281,25.8174 63.4281,25.4841 60.5,24.5C 61.1925,23.4822 61.8592,22.4822 62.5,21.5 Z"/></g>
<g><path style="opacity:0.02" fill="#05020c" d="M 73.5,21.5 C 75.0749,22.3284 76.4082,22.6618 77.5,22.5C 76.1284,26.3129 76.4617,29.9796 78.5,33.5C 76.9826,33.4894 75.8159,32.8228 75,31.5C 74.6174,32.056 74.1174,32.3893 73.5,32.5C 72.7354,32.0766 71.9021,31.7432 71,31.5C 67.0807,34.4677 63.5807,34.1344 60.5,30.5C 65.1196,29.5067 69.7863,29.1734 74.5,29.5C 74.7214,26.7212 74.388,24.0545 73.5,21.5 Z"/></g>
<g><path style="opacity:0.011" fill="#000000" d="M 4.5,22.5 C 5.83333,22.5 7.16667,22.5 8.5,22.5C 8.5,25.8333 8.5,29.1667 8.5,32.5C 7.52333,29.7131 7.19,26.7131 7.5,23.5C 6.20895,23.7373 5.20895,23.404 4.5,22.5 Z"/></g>
<g><path style="opacity:0.029" fill="#12091e" d="M 85.5,21.5 C 91.5464,21.5727 93.7131,24.5727 92,30.5C 88.2864,34.6926 84.9531,34.3592 82,29.5C 81.2793,25.9463 82.4459,23.2796 85.5,21.5 Z M 85.5,23.5 C 82.3782,26.9468 82.8782,29.6135 87,31.5C 93.0736,27.9279 92.5736,25.2612 85.5,23.5 Z"/></g>
<g><path style="opacity:0.023" fill="#0f0719" d="M 107.5,22.5 C 114,21.4987 116.5,24.1653 115,30.5C 111.286,34.6926 107.953,34.3592 105,29.5C 104.162,26.5193 104.995,24.1859 107.5,22.5 Z M 109.5,23.5 C 108.172,24.5072 107.172,25.8405 106.5,27.5C 107.186,30.9981 109.186,32.1647 112.5,31C 115.305,27.0995 114.305,24.5995 109.5,23.5 Z"/></g>
<g><path style="opacity:0.027" fill="#05020d" d="M 139.5,21.5 C 140.332,22.3285 139.999,23.1618 138.5,24C 136.623,24.5758 134.789,24.4091 133,23.5C 129.928,24.4473 128.928,26.4473 130,29.5C 131.444,31.1554 133.278,31.822 135.5,31.5C 133.712,32.6225 131.712,32.7891 129.5,32C 126.083,27.1701 127.083,24.0034 132.5,22.5C 135.187,24.0507 137.521,23.7173 139.5,21.5 Z"/></g>
<g><path style="opacity:0.473" fill="#26185b" d="M 21.5,18.5 C 21.5,24.5 21.5,30.5 21.5,36.5C 22.8333,36.5 24.1667,36.5 25.5,36.5C 25.185,32.6286 25.5184,28.9619 26.5,25.5C 26.5,29.5 26.5,33.5 26.5,37.5C 24.6531,38.5729 22.6531,38.5729 20.5,37.5C 20.1765,30.9779 20.5098,24.6446 21.5,18.5 Z"/></g>
<g><path style="opacity:0.024" fill="#010005" d="M 135.5,31.5 C 138.372,30.4433 140.372,31.6099 141.5,35C 140.756,36.0386 139.756,36.5386 138.5,36.5C 139.741,33.7041 138.741,32.0374 135.5,31.5 Z"/></g>
<g><path style="opacity:0.106" fill="#070313" d="M 78.5,34.5 C 79.1667,34.5 79.5,34.8333 79.5,35.5C 78.9222,36.547 78.2555,36.3803 77.5,35C 77.7284,34.6012 78.0618,34.4346 78.5,34.5 Z"/></g>
<g><path style="opacity:0.008" fill="#000000" d="M 73.5,35.5 C 74.8333,36.1667 74.8333,36.1667 73.5,35.5 Z"/></g>
<g><path style="opacity:0.512" fill="#271953" d="M 52.5,36.5 C 52.5,36.8333 52.5,37.1667 52.5,37.5C 50.312,38.6227 47.9787,38.6227 45.5,37.5C 46.1217,36.3734 46.955,35.3734 48,34.5C 49.049,36.1066 50.549,36.7733 52.5,36.5 Z"/></g>
<g><path style="opacity:0.006" fill="#0c0415" d="M 72.5,35.5 C 72.5,36.1667 72.8333,36.5 73.5,36.5C 72.8333,37.8333 72.1667,37.8333 71.5,36.5C 71.5,35.8333 71.8333,35.5 72.5,35.5 Z"/></g>
</svg>
