<svg width="176" height="33" viewBox="0 0 176 33" fill="none" xmlns="http://www.w3.org/2000/svg">
<path d="M1.00098 13.918C1.00098 12.8926 1.10677 11.8997 1.31836 10.9395C1.54622 9.96289 1.89616 9.01074 2.36816 8.08301C2.80762 7.17155 3.361 6.34147 4.02832 5.59277C4.69564 4.8278 5.46875 4.15234 6.34766 3.56641C7.21029 2.98047 8.17871 2.54102 9.25293 2.24805C10.3271 1.95508 11.5072 1.79232 12.793 1.75977C13.5905 1.75977 14.3717 1.81673 15.1367 1.93066C15.918 2.0446 16.6748 2.20736 17.4072 2.41895C18.1396 2.66309 18.8232 2.96419 19.458 3.32227C20.109 3.66406 20.7194 4.07096 21.2891 4.54297L20.7764 5.44629C20.5973 5.75553 20.3857 6.01595 20.1416 6.22754C19.8975 6.43913 19.6208 6.59375 19.3115 6.69141C18.9697 6.82161 18.6279 6.87858 18.2861 6.8623C17.9606 6.82975 17.627 6.72396 17.2852 6.54492C16.8945 6.38216 16.512 6.23568 16.1377 6.10547C15.7633 5.97526 15.389 5.86133 15.0146 5.76367C14.624 5.69857 14.2415 5.64974 13.8672 5.61719C13.4928 5.56836 13.1348 5.54395 12.793 5.54395C12.0605 5.56022 11.3688 5.66602 10.7178 5.86133C10.083 6.04036 9.48893 6.30078 8.93555 6.64258C8.36589 7.01693 7.85319 7.45638 7.39746 7.96094C6.95801 8.44922 6.58366 9.0026 6.27441 9.62109C5.93262 10.2559 5.68034 10.9313 5.51758 11.6475C5.35482 12.3636 5.27344 13.1204 5.27344 13.918C5.27344 14.748 5.35482 15.5293 5.51758 16.2617C5.69661 16.9779 5.95703 17.637 6.29883 18.2393C6.62435 18.874 7.00684 19.4274 7.44629 19.8994C7.90202 20.3714 8.42285 20.7783 9.00879 21.1201C9.56217 21.4619 10.1644 21.7223 10.8154 21.9014C11.4665 22.0804 12.1582 22.1699 12.8906 22.1699C13.2324 22.1699 13.5824 22.1536 13.9404 22.1211C14.3148 22.0885 14.6973 22.0234 15.0879 21.9258C15.446 21.8607 15.8203 21.7712 16.2109 21.6572C16.6016 21.527 16.9922 21.3643 17.3828 21.1689C17.6921 21.0225 18.0013 20.9411 18.3105 20.9248C18.6361 20.8923 18.9616 20.9167 19.2871 20.998C19.5801 21.0957 19.8486 21.2585 20.0928 21.4863C20.3532 21.6979 20.5811 21.9583 20.7764 22.2676L21.2891 23.1709C20.7194 23.6592 20.109 24.0824 19.458 24.4404C18.8232 24.7985 18.1559 25.0833 17.4561 25.2949C16.7236 25.5391 15.9749 25.71 15.21 25.8076C14.4613 25.9215 13.6882 25.9704 12.8906 25.9541C11.6211 25.9541 10.4492 25.7995 9.375 25.4902C8.31706 25.1973 7.34863 24.7578 6.46973 24.1719C5.57454 23.6022 4.78516 22.9512 4.10156 22.2188C3.43424 21.4701 2.87272 20.6318 2.41699 19.7041C1.92871 18.8089 1.57064 17.8812 1.34277 16.9209C1.11491 15.9443 1.00098 14.9434 1.00098 13.918ZM22.2783 30.4951H21.8633V29.2012C21.8633 28.8594 21.8958 28.5583 21.9609 28.2979C22.026 28.0537 22.1237 27.834 22.2539 27.6387C22.3516 27.4434 22.4818 27.2643 22.6445 27.1016C22.8073 26.9388 22.9863 26.8005 23.1816 26.6865C23.5885 26.4261 23.9466 26.1494 24.2559 25.8564C24.5814 25.5798 24.8662 25.2949 25.1104 25.002C25.3219 24.7253 25.501 24.416 25.6475 24.0742C25.8102 23.7324 25.9404 23.3662 26.0381 22.9756C26.1032 22.6012 26.1602 22.1781 26.209 21.7061C26.2578 21.234 26.2822 20.7051 26.2822 20.1191V6.20312H21.9609V5.12891C21.9609 4.78711 22.0179 4.46973 22.1318 4.17676C22.2458 3.88379 22.4167 3.61523 22.6445 3.37109C22.8398 3.14323 23.084 2.97233 23.377 2.8584C23.6699 2.72819 24.0036 2.65495 24.3779 2.63867H34.7783V3.93262C34.7458 4.32324 34.6725 4.6569 34.5586 4.93359C34.4447 5.21029 34.29 5.43815 34.0947 5.61719C33.8669 5.8125 33.6227 5.95898 33.3623 6.05664C33.1182 6.1543 32.8496 6.20312 32.5566 6.20312H30.457V20.9004C30.4733 21.9095 30.3268 22.8698 30.0176 23.7812C29.7246 24.709 29.2689 25.5879 28.6504 26.418C28.0156 27.248 27.1611 27.9967 26.0869 28.6641C25.029 29.3477 23.7594 29.958 22.2783 30.4951Z" fill="#333333"/>
<path d="M53.4072 25.0996H44.8135V4.71387C44.7972 4.37207 44.8379 4.07096 44.9355 3.81055C45.0495 3.55013 45.2204 3.32227 45.4482 3.12695C45.6436 2.96419 45.904 2.84212 46.2295 2.76074C46.5713 2.66309 46.9619 2.61426 47.4014 2.61426H52.6016C53.8223 2.63053 54.9046 2.77702 55.8486 3.05371C56.8089 3.3304 57.6309 3.7373 58.3145 4.27441C58.998 4.8278 59.5107 5.4707 59.8525 6.20312C60.1943 6.91927 60.3734 7.72493 60.3896 8.62012C60.3896 9.20605 60.3327 9.7513 60.2188 10.2559C60.1048 10.7441 59.9421 11.1836 59.7305 11.5742C59.5026 11.9974 59.2259 12.3717 58.9004 12.6973C58.5911 13.0065 58.2412 13.2751 57.8506 13.5029C58.4365 13.7308 58.9574 14.0075 59.4131 14.333C59.8851 14.6423 60.292 15.0166 60.6338 15.4561C60.943 15.9118 61.179 16.4082 61.3418 16.9453C61.5046 17.4661 61.5859 18.0277 61.5859 18.6299C61.5697 19.6715 61.3743 20.5911 61 21.3887C60.6419 22.1862 60.1048 22.8617 59.3887 23.415C58.6562 23.9847 57.7855 24.4079 56.7764 24.6846C55.7835 24.9613 54.6605 25.0996 53.4072 25.0996ZM53.4072 15.6025H48.9883V22.4141C49.0859 22.2676 49.1999 22.1292 49.3301 21.999C49.4603 21.8688 49.6149 21.7549 49.7939 21.6572C49.9567 21.5921 50.1357 21.5352 50.3311 21.4863C50.5264 21.4375 50.7461 21.4131 50.9902 21.4131H53.0898C53.7572 21.4131 54.3431 21.3561 54.8477 21.2422C55.3685 21.1283 55.8079 20.9492 56.166 20.7051C56.5078 20.4935 56.7601 20.1924 56.9229 19.8018C57.1019 19.4111 57.1995 18.9473 57.2158 18.4102C57.2158 17.9544 57.1344 17.5557 56.9717 17.2139C56.8252 16.8558 56.6055 16.5547 56.3125 16.3105C56.0033 16.099 55.6045 15.9362 55.1162 15.8223C54.6279 15.6921 54.0583 15.6188 53.4072 15.6025ZM48.9883 13.1855C49.0859 12.9902 49.208 12.8275 49.3545 12.6973C49.501 12.5508 49.6719 12.4287 49.8672 12.3311C50.0625 12.266 50.266 12.2171 50.4775 12.1846C50.7054 12.152 50.9495 12.1357 51.21 12.1357H52.9922C53.513 12.0869 53.9688 11.9893 54.3594 11.8428C54.75 11.6963 55.0837 11.4847 55.3604 11.208C55.6045 10.9639 55.7917 10.6709 55.9219 10.3291C56.0521 9.97103 56.1172 9.56413 56.1172 9.1084C56.1009 8.58757 56.0114 8.14811 55.8486 7.79004C55.6859 7.41569 55.458 7.11458 55.165 6.88672C54.8395 6.69141 54.4489 6.54492 53.9932 6.44727C53.5374 6.34961 53.0085 6.30078 52.4062 6.30078H48.9883V13.1855ZM65.4072 25.0752V4.73828C65.391 4.39648 65.4316 4.09538 65.5293 3.83496C65.627 3.57454 65.7816 3.34668 65.9932 3.15137C66.1885 2.98861 66.4408 2.86654 66.75 2.78516C67.0755 2.6875 67.458 2.63867 67.8975 2.63867H69.582V22.9756C69.582 23.3337 69.5251 23.6429 69.4111 23.9033C69.2972 24.1637 69.1426 24.3753 68.9473 24.5381C68.7194 24.7171 68.4508 24.8473 68.1416 24.9287C67.8324 25.0264 67.4824 25.0752 67.0918 25.0752H65.4072ZM97.0605 13.918C97.0605 14.9434 96.9385 15.9443 96.6943 16.9209C96.4502 17.8812 96.0921 18.8089 95.6201 19.7041C95.1318 20.6318 94.5378 21.4701 93.8379 22.2188C93.1543 22.9512 92.3649 23.6022 91.4697 24.1719C90.5583 24.7578 89.5573 25.1973 88.4668 25.4902C87.3926 25.7995 86.2288 25.9541 84.9756 25.9541C83.7061 25.9541 82.526 25.7995 81.4355 25.4902C80.3613 25.1973 79.3848 24.7578 78.5059 24.1719C77.5944 23.6022 76.7887 22.9512 76.0889 22.2188C75.4053 21.4701 74.8275 20.6318 74.3555 19.7041C73.8672 18.8089 73.501 17.8812 73.2568 16.9209C73.0127 15.9443 72.8906 14.9434 72.8906 13.918C72.8906 12.8926 73.0127 11.8997 73.2568 10.9395C73.501 9.96289 73.8672 9.01074 74.3555 8.08301C74.8275 7.17155 75.4053 6.34147 76.0889 5.59277C76.7887 4.8278 77.5944 4.15234 78.5059 3.56641C79.3848 2.98047 80.3613 2.54102 81.4355 2.24805C82.526 1.95508 83.7061 1.79232 84.9756 1.75977C86.2288 1.79232 87.3926 1.95508 88.4668 2.24805C89.5573 2.54102 90.5583 2.98047 91.4697 3.56641C92.3649 4.15234 93.1543 4.8278 93.8379 5.59277C94.5378 6.34147 95.1318 7.17155 95.6201 8.08301C96.0921 9.01074 96.4502 9.96289 96.6943 10.9395C96.9385 11.8997 97.0605 12.8926 97.0605 13.918ZM77.1631 13.918C77.1631 14.6829 77.2445 15.4072 77.4072 16.0908C77.57 16.7744 77.8141 17.4173 78.1396 18.0195C78.4489 18.6543 78.8314 19.224 79.2871 19.7285C79.7428 20.2168 80.2637 20.64 80.8496 20.998C81.4355 21.3887 82.0703 21.6816 82.7539 21.877C83.4375 22.0723 84.1862 22.1699 85 22.1699C85.7812 22.1699 86.5137 22.0723 87.1973 21.877C87.8971 21.6816 88.54 21.3968 89.126 21.0225C89.6956 20.6644 90.2002 20.2331 90.6396 19.7285C91.0954 19.224 91.486 18.6543 91.8115 18.0195C92.1208 17.4173 92.3568 16.7744 92.5195 16.0908C92.6823 15.4072 92.7718 14.6829 92.7881 13.918C92.7718 13.1855 92.6823 12.4694 92.5195 11.7695C92.3568 11.0697 92.1208 10.4023 91.8115 9.76758C91.486 9.14909 91.0954 8.58757 90.6396 8.08301C90.2002 7.57845 89.6956 7.13086 89.126 6.74023C88.54 6.36589 87.8971 6.08105 87.1973 5.88574C86.5137 5.69043 85.7812 5.5765 85 5.54395C84.1862 5.5765 83.4375 5.69043 82.7539 5.88574C82.0703 6.08105 81.4355 6.36589 80.8496 6.74023C80.2637 7.13086 79.7428 7.57845 79.2871 8.08301C78.8314 8.58757 78.4489 9.14909 78.1396 9.76758C77.8141 10.4023 77.57 11.0697 77.4072 11.7695C77.2445 12.4694 77.1631 13.1855 77.1631 13.918ZM100.394 25.0752V4.73828C100.377 4.39648 100.418 4.09538 100.516 3.83496C100.63 3.57454 100.8 3.34668 101.028 3.15137C101.224 2.98861 101.484 2.86654 101.81 2.78516C102.151 2.6875 102.542 2.63867 102.981 2.63867H103.592L114.456 15.9199C114.57 16.099 114.684 16.2699 114.798 16.4326C114.928 16.5954 115.058 16.75 115.188 16.8965C115.286 17.0755 115.384 17.2546 115.481 17.4336C115.579 17.6126 115.677 17.7917 115.774 17.9707V4.73828C115.758 4.39648 115.799 4.09538 115.896 3.83496C115.994 3.57454 116.141 3.35482 116.336 3.17578C116.531 3.01302 116.775 2.89095 117.068 2.80957C117.361 2.71191 117.711 2.65495 118.118 2.63867H119.949V22.9756C119.949 23.3337 119.9 23.6429 119.803 23.9033C119.721 24.1637 119.583 24.3753 119.388 24.5381C119.176 24.7334 118.908 24.8717 118.582 24.9531C118.273 25.0345 117.898 25.0752 117.459 25.0752H116.751L105.667 11.623C105.553 11.5091 105.447 11.387 105.35 11.2568C105.252 11.1104 105.162 10.9639 105.081 10.8174C104.983 10.7035 104.886 10.5814 104.788 10.4512C104.707 10.3047 104.633 10.1582 104.568 10.0117V22.9756C104.568 23.3337 104.511 23.6429 104.397 23.9033C104.3 24.1637 104.153 24.3753 103.958 24.5381C103.73 24.7171 103.462 24.8473 103.152 24.9287C102.859 25.0264 102.518 25.0752 102.127 25.0752H100.394ZM139.859 25.0752L137.833 19.6309C137.703 19.7122 137.573 19.7773 137.442 19.8262C137.312 19.875 137.19 19.9076 137.076 19.9238C136.93 19.9727 136.791 20.0052 136.661 20.0215C136.531 20.0215 136.401 20.0215 136.271 20.0215H129.972L130.655 18.0195C130.769 17.7103 130.924 17.4417 131.119 17.2139C131.314 16.9697 131.534 16.7744 131.778 16.6279C132.006 16.4977 132.258 16.4001 132.535 16.335C132.812 16.2699 133.121 16.2373 133.463 16.2373H136.612L133.854 8.4248C133.756 8.21322 133.674 8.00977 133.609 7.81445C133.561 7.60286 133.512 7.39941 133.463 7.2041C133.414 7.04134 133.365 6.87044 133.316 6.69141C133.284 6.51237 133.259 6.3252 133.243 6.12988H133.17L127.359 23C127.213 23.3418 127.026 23.6429 126.798 23.9033C126.586 24.1637 126.334 24.3753 126.041 24.5381C125.715 24.7334 125.382 24.8717 125.04 24.9531C124.698 25.0345 124.34 25.0752 123.966 25.0752H122.379V24.6846L129.068 5.51953C129.28 4.91732 129.508 4.40462 129.752 3.98145C130.012 3.55827 130.281 3.22461 130.558 2.98047C130.802 2.76888 131.103 2.60612 131.461 2.49219C131.819 2.37826 132.218 2.32129 132.657 2.32129H136.051L143.644 23.1953V23.5859C143.644 23.7812 143.603 23.9603 143.521 24.123C143.456 24.2858 143.351 24.4404 143.204 24.5869C143.041 24.7497 142.822 24.8717 142.545 24.9531C142.268 25.0345 141.935 25.0752 141.544 25.0752H139.859ZM154.472 25.2705H151.273L144.096 4.51855V4.12793C144.079 3.94889 144.112 3.77799 144.193 3.61523C144.291 3.4362 144.438 3.2653 144.633 3.10254C144.812 2.95605 145.048 2.85026 145.341 2.78516C145.634 2.70378 145.984 2.65495 146.391 2.63867H147.88L154.179 21.3887H154.374C154.374 21.291 154.382 21.2015 154.398 21.1201C154.431 21.0225 154.472 20.9248 154.521 20.8271C154.537 20.762 154.553 20.6888 154.569 20.6074C154.602 20.5098 154.634 20.4121 154.667 20.3145L159.281 4.93359C159.379 4.5918 159.534 4.28255 159.745 4.00586C159.957 3.72917 160.209 3.47689 160.502 3.24902C160.795 3.05371 161.12 2.90723 161.479 2.80957C161.837 2.69564 162.235 2.63867 162.675 2.63867H164.359V3.0293L158.378 22.0723C158.134 22.707 157.873 23.236 157.597 23.6592C157.336 24.0986 157.06 24.4242 156.767 24.6357C156.441 24.8799 156.083 25.0508 155.692 25.1484C155.318 25.2624 154.911 25.3031 154.472 25.2705ZM166.789 25.0752V4.73828C166.773 4.39648 166.813 4.09538 166.911 3.83496C167.009 3.57454 167.163 3.34668 167.375 3.15137C167.57 2.98861 167.823 2.86654 168.132 2.78516C168.457 2.6875 168.84 2.63867 169.279 2.63867H170.964V22.9756C170.964 23.3337 170.907 23.6429 170.793 23.9033C170.679 24.1637 170.524 24.3753 170.329 24.5381C170.101 24.7171 169.833 24.8473 169.523 24.9287C169.214 25.0264 168.864 25.0752 168.474 25.0752H166.789Z" fill="#1379B8"/>
</svg>
