<svg width="9" height="7" viewBox="0 0 9 7" fill="none" xmlns="http://www.w3.org/2000/svg">
<path d="M4.28543 6.07041C4.32406 6.12593 4.37575 6.17132 4.43604 6.20268C4.49633 6.23404 4.56343 6.25043 4.63154 6.25043C4.69965 6.25043 4.76675 6.23404 4.82704 6.20268C4.88733 6.17132 4.93902 6.12593 4.97765 6.07041L8.76716 0.65375C8.81102 0.591274 8.83674 0.518096 8.84153 0.442169C8.84632 0.366242 8.82999 0.290468 8.79431 0.223081C8.75863 0.155694 8.70498 0.0992701 8.63917 0.0599409C8.57337 0.0206117 8.49793 -0.00011931 8.42105 5.16522e-07H0.842031C0.765333 0.00031402 0.690172 0.0213116 0.624631 0.060735C0.559091 0.100158 0.50565 0.156516 0.470057 0.223747C0.434463 0.290979 0.418063 0.36654 0.422621 0.442305C0.427178 0.51807 0.452521 0.591172 0.495923 0.65375L4.28543 6.07041Z" fill="#828282"/>
</svg>
