<svg width="43" height="24" viewBox="0 0 43 24" fill="none" xmlns="http://www.w3.org/2000/svg">
<path opacity="0.2" d="M21.4604 22.4292L20.3841 23.474C20.6666 23.765 21.0549 23.9292 21.4604 23.9292C21.8659 23.9292 22.2542 23.765 22.5367 23.474L21.4604 22.4292ZM3.07619 1.33807C2.49915 0.743662 1.54951 0.72958 0.955099 1.30662C0.360693 1.88365 0.346613 2.8333 0.923647 3.4277L3.07619 1.33807ZM41.9972 3.42771C42.5742 2.8333 42.5601 1.88366 41.9657 1.30662C41.3713 0.729584 40.4217 0.743666 39.8446 1.33807L41.9972 3.42771ZM22.5367 21.3844L3.07619 1.33807L0.923647 3.4277L20.3841 23.474L22.5367 21.3844ZM39.8446 1.33807L20.3841 21.3844L22.5367 23.474L41.9972 3.42771L39.8446 1.33807Z" fill="#333333"/>
</svg>
