<?xml version="1.0" encoding="utf-8"?>
<!-- Generator: Adobe Illustrator 26.0.2, SVG Export Plug-In . SVG Version: 6.00 Build 0)  -->
<svg version="1.1" id="레이어_1" xmlns="http://www.w3.org/2000/svg" xmlns:xlink="http://www.w3.org/1999/xlink" x="0px"
	 y="0px" viewBox="0 0 24 24" style="enable-background:new 0 0 24 24;" xml:space="preserve">
<style type="text/css">
	.st0{fill:#707070;}
</style>
<path class="st0" d="M17.4,13.4L12.7,18c0,0-0.1,0-0.1,0c-0.1,0.1-0.2,0.1-0.3,0.2c-0.1,0.1-0.3,0.1-0.4,0.1c0,0,0,0,0,0s0,0,0,0
	c0,0,0,0,0,0c-0.1,0-0.2,0-0.3-0.1c-0.1-0.1-0.2-0.1-0.3-0.2l-4.7-4.7c-0.4-0.4-0.4-1,0-1.4s1-0.4,1.4,0l3,3V6.7c0-0.6,0.4-1,1-1
	s1,0.4,1,1v8.3l3-3c0.4-0.4,1-0.4,1.4,0S17.8,13,17.4,13.4z"/>
</svg>
