<?xml version="1.0" encoding="utf-8"?>
<!-- Generator: Adobe Illustrator 26.0.3, SVG Export Plug-In . SVG Version: 6.00 Build 0)  -->
<svg version="1.1" id="레이어_1" xmlns="http://www.w3.org/2000/svg" xmlns:xlink="http://www.w3.org/1999/xlink" x="0px"
	 y="0px" viewBox="0 0 35 35" style="enable-background:new 0 0 35 35;" xml:space="preserve">
<style type="text/css">
	.st0{fill:#FFFFFF;}
</style>
<g>
	<path class="st0" d="M7.3,28.6c-0.2,0-0.4-0.1-0.5-0.2c-0.3-0.3-0.3-0.8,0-1.1l2.5-2.5c-3.6-2-6.4-4.8-7.8-6.7
		c-0.2-0.2-0.2-0.6,0-0.9c2-3.1,7.7-9.1,15.7-9.1c2.6,0,5,0.6,7.2,1.6l2.8-2.8c0.3-0.3,0.8-0.3,1.1,0s0.3,0.8,0,1.1l-2.5,2.5
		c3.7,2,6.5,4.9,7.8,6.7c0.2,0.3,0.2,0.7,0,0.9C30.9,21.2,24,27,17.1,27c-2.2,0-4.4-0.6-6.4-1.5l-2.9,2.9
		C7.7,28.5,7.5,28.6,7.3,28.6z M11.8,24.4c1.7,0.7,3.5,1.2,5.3,1.2c6.1,0,12.2-4.9,14.9-7.9c-1.4-1.8-4-4.3-7.4-6L11.8,24.4z
		 M3,17.6c1.5,1.8,4.2,4.4,7.4,6.1l12.8-12.8c-1.9-0.8-3.9-1.3-6.1-1.3C10.2,9.6,5,14.6,3,17.6z"/>
	<path class="st0" d="M17.7,23.1c-1,0-1.9-0.2-2.5-0.5c-0.4-0.2-0.5-0.6-0.4-1c0.2-0.4,0.6-0.5,1-0.4c1,0.5,3.4,0.8,4.9-1
		c1.9-2.2,0.7-4.4,0.6-4.5c-0.2-0.4-0.1-0.8,0.3-1c0.4-0.2,0.8-0.1,1,0.3c0.7,1.2,1.3,3.8-0.8,6.2C20.7,22.7,19.1,23.1,17.7,23.1z
		 M13,20.1c-0.3,0-0.5-0.1-0.7-0.4c-0.7-1.2-1.3-4.2,1.2-6.5c2.4-2.3,5.3-1.6,6.5-1c0.4,0.2,0.5,0.7,0.3,1s-0.7,0.5-1,0.3
		c-0.8-0.5-2.9-0.9-4.7,0.7c-1.8,1.7-1.3,3.8-0.9,4.7c0.2,0.4,0.1,0.8-0.3,1C13.2,20,13.1,20.1,13,20.1z"/>
</g>
</svg>
