<?xml version="1.0" encoding="utf-8"?>
<!-- Generator: Adobe Illustrator 26.0.2, SVG Export Plug-In . SVG Version: 6.00 Build 0)  -->
<svg version="1.1" id="레이어_1" xmlns="http://www.w3.org/2000/svg" xmlns:xlink="http://www.w3.org/1999/xlink" x="0px"
	 y="0px" viewBox="0 0 24 24" style="enable-background:new 0 0 24 24;" xml:space="preserve">
<style type="text/css">
	.st0{fill:#666666;}
</style>
<path class="st0" d="M8.2,11.4l3.5,5.6H9.3l-2.6-4.2l-0.9,0.6V17H3.6V7h2.1v4.6C5.9,11.4,6,11.2,6.2,11c0.1-0.2,0.3-0.4,0.4-0.6
	L9.3,7h2.4L8.2,11.4z M20.6,17h-2.4l-2.4-3.8h-1.1V17h-2.1V7h2.9c1.4,0,2.4,0.2,3,0.7c0.7,0.5,1,1.2,1,2.3c0,0.5-0.1,0.9-0.3,1.2
	c-0.2,0.3-0.4,0.6-0.7,0.9c-0.3,0.2-0.6,0.4-0.9,0.6L20.6,17z M17.4,10.1c0-0.5-0.2-0.8-0.5-1c-0.3-0.2-0.8-0.3-1.5-0.3h-0.6v2.7
	h0.7c0.7,0,1.2-0.1,1.5-0.4C17.3,10.9,17.4,10.5,17.4,10.1z"/>
</svg>
