<?xml version="1.0" encoding="utf-8"?>
<!-- Generator: Adobe Illustrator 26.0.2, SVG Export Plug-In . SVG Version: 6.00 Build 0)  -->
<svg version="1.1" id="레이어_1" xmlns="http://www.w3.org/2000/svg" xmlns:xlink="http://www.w3.org/1999/xlink" x="0px"
	 y="0px" viewBox="0 0 24 24" style="enable-background:new 0 0 24 24;" xml:space="preserve">
<style type="text/css">
	.st0{fill:#FFFFFF;}
</style>
<path class="st0" d="M21,12L21,12c0,0.1,0,0.3-0.1,0.4c0,0.1-0.1,0.2-0.2,0.3l-7,7C13.5,19.9,13.3,20,13,20s-0.5-0.1-0.7-0.3
	c-0.4-0.4-0.4-1,0-1.4l5.3-5.3H4c-0.6,0-1-0.4-1-1s0.4-1,1-1h13.6l-5.3-5.3c-0.4-0.4-0.4-1,0-1.4s1-0.4,1.4,0l7,7
	c0.1,0.1,0.2,0.2,0.2,0.3C21,11.7,21,11.9,21,12z"/>
</svg>
