<?xml version="1.0" encoding="utf-8"?>
<!-- Generator: Adobe Illustrator 26.0.2, SVG Export Plug-In . SVG Version: 6.00 Build 0)  -->
<svg version="1.1" id="레이어_1" xmlns="http://www.w3.org/2000/svg" xmlns:xlink="http://www.w3.org/1999/xlink" x="0px"
	 y="0px" viewBox="0 0 31 30" style="enable-background:new 0 0 31 30;" xml:space="preserve">
<style type="text/css">
	.st0{fill:#666666;}
</style>
<path class="st0" d="M24.4,20.3l-1.3-2.7v-4.9c0-2-0.8-3.9-2.2-5.3c-0.7-0.7-1.5-1.3-2.5-1.6c-0.3-1.4-1.5-2.4-2.9-2.4
	c-1.4,0-2.6,1-2.9,2.4c-2.8,1.2-4.7,3.9-4.7,7v4.9l-1.3,2.7c-0.3,0.5-0.2,1.2,0.1,1.7c0.3,0.5,0.9,0.8,1.5,0.8h4
	c0.4,1.4,1.7,2.8,3.3,2.8c1.6,0,2.9-1.3,3.3-2.8h4c0.6,0,1.2-0.3,1.5-0.8C24.7,21.5,24.7,20.9,24.4,20.3z M15.5,23.7
	c-0.4,0-0.9-0.3-1.2-0.8h2.3C16.4,23.3,15.9,23.7,15.5,23.7z M19,20.9h-7H8.5l1.4-2.7v-5.4c0-2.5,1.6-4.6,3.9-5.3l0.8-0.3l-0.1-0.8
	c0-0.5,0.4-0.9,0.9-0.9c0.5,0,0.9,0.4,0.9,0.9l-0.1,0.9l0.8,0.2c0.9,0.3,1.7,0.7,2.3,1.4c1.1,1,1.6,2.4,1.6,3.9v5.4l1.4,2.7H19z"/>
</svg>
