<?xml version="1.0" encoding="utf-8"?>
<!-- Generator: Adobe Illustrator 26.0.2, SVG Export Plug-In . SVG Version: 6.00 Build 0)  -->
<svg version="1.1" id="레이어_1" xmlns="http://www.w3.org/2000/svg" xmlns:xlink="http://www.w3.org/1999/xlink" x="0px"
	 y="0px" viewBox="0 0 24 24" style="enable-background:new 0 0 24 24;" xml:space="preserve">
<style type="text/css">
	.st0{fill:#999999;}
</style>
<path class="st0" d="M18.3,2.7c-0.4-0.4-1-0.7-1.6-0.7H7.3C6.7,2,6.1,2.2,5.7,2.7C5.2,3.2,5,3.8,5,4.4v15.9c0,0.1,0,0.2,0.1,0.3
	c0.1,0.1,0.1,0.2,0.2,0.2c0.1,0.1,0.2,0.1,0.3,0.1c0.1,0,0.2,0,0.3-0.1l6.1-3.3l6.1,3.3l0,0c0.1,0.1,0.2,0.1,0.3,0.1l0,0
	c0.1,0,0.2,0,0.3-0.1c0.1-0.1,0.2-0.1,0.2-0.2c0.1-0.1,0.1-0.2,0.1-0.3V4.4C19,3.8,18.8,3.2,18.3,2.7z M11.7,16.3l-5.5,2.9V4.4
	c0-0.3,0.1-0.6,0.3-0.8C6.7,3.4,7,3.2,7.3,3.2h9.3c0.3,0,0.6,0.1,0.8,0.3c0.2,0.2,0.3,0.5,0.3,0.8v14.8l-5.5-2.9
	C12.1,16.2,11.9,16.2,11.7,16.3z M11.7,5.7c0-0.1,0.1-0.1,0.1-0.1s0.1,0,0.2,0c0.1,0,0.1,0,0.2,0l0.1,0.1l1,2.3l0.1,0.1
	c0,0,0.1,0,0.1,0.1l2.4,0.4c0.2,0,0.3,0.4,0.2,0.5l-1.7,1.8L14.3,11c0,0,0,0.1,0,0.2l0.4,2.5c0,0.1,0,0.1,0,0.2
	c0,0.1-0.1,0.1-0.1,0.1s-0.1,0.1-0.2,0.1c-0.1,0-0.1,0-0.2,0l-2.1-1.2H12h-0.1l-2.1,1.2c0,0-0.1,0-0.2,0c-0.1,0-0.1,0-0.2-0.1
	l-0.1-0.1c0-0.1,0-0.1,0-0.2l0.4-2.5v-0.1c0,0,0-0.1-0.1-0.1L7.9,9.1L7.8,9c0-0.1,0-0.1,0-0.2c0-0.1,0-0.1,0.1-0.1L8,8.6l2.4-0.4
	c0,0,0.1,0,0.1-0.1L10.6,8L11.7,5.7z"/>
</svg>
