<?xml version="1.0" encoding="utf-8"?>
<!-- Generator: Adobe Illustrator 26.0.2, SVG Export Plug-In . SVG Version: 6.00 Build 0)  -->
<svg version="1.1" id="레이어_1" xmlns="http://www.w3.org/2000/svg" xmlns:xlink="http://www.w3.org/1999/xlink" x="0px"
	 y="0px" viewBox="0 0 34 34" style="enable-background:new 0 0 34 34;" xml:space="preserve">
<style type="text/css">
	.st0{fill:#999999;}
</style>
<path class="st0" d="M10.2,15.3c-0.4-0.4-0.4-1,0-1.4s1-0.4,1.4,0l4.4,4.4V6c0-0.6,0.4-1,1-1s1,0.4,1,1v12.3l4.4-4.4
	c0.4-0.4,1-0.4,1.4,0s0.4,1,0,1.4l-6.1,6.1c-0.1,0.1-0.2,0.2-0.3,0.2c-0.1,0-0.2,0.1-0.4,0.1c0,0,0,0,0,0s0,0,0,0
	c-0.1,0-0.3,0-0.4-0.1c-0.1,0-0.2-0.1-0.3-0.2L10.2,15.3z M28,19.7c-0.6,0-1,0.4-1,1v4.9c0,0.4-0.2,0.7-0.4,1
	c-0.3,0.3-0.6,0.4-1,0.4H8.4c-0.4,0-0.7-0.2-1-0.4c-0.3-0.3-0.4-0.6-0.4-1v-4.9c0-0.6-0.4-1-1-1s-1,0.4-1,1v4.9c0,0.9,0.4,1.8,1,2.4
	c0.7,0.7,1.5,1,2.4,1h17.1c0.9,0,1.8-0.4,2.4-1c0.6-0.7,1-1.5,1-2.4v-4.9C29,20.1,28.6,19.7,28,19.7z"/>
</svg>
