<?xml version="1.0" encoding="utf-8"?>
<!-- Generator: Adobe Illustrator 26.0.2, SVG Export Plug-In . SVG Version: 6.00 Build 0)  -->
<svg version="1.1" id="레이어_1" xmlns="http://www.w3.org/2000/svg" xmlns:xlink="http://www.w3.org/1999/xlink" x="0px"
	 y="0px" viewBox="0 0 24 24" style="enable-background:new 0 0 24 24;" xml:space="preserve">
<path d="M21.4,10.8h-2.2V8.7c0-0.3-0.3-0.6-0.6-0.6h-6.3L9.9,6H9.8H4.6C4.3,6,4,6.3,4,6.6v10.8C4,17.7,4.3,18,4.6,18h14
	c0.3,0,0.5-0.1,0.6-0.4l2.7-6.1c0-0.1,0-0.1,0-0.2C22,11,21.7,10.8,21.4,10.8z M5.4,7.3h3.8l2.4,2.1h6.1v1.3H7.5
	c-0.3,0-0.5,0.1-0.6,0.4l-1.5,3.3V7.3z M18.2,16.7H5.9L8,12h12.3L18.2,16.7z"/>
</svg>
