<?xml version="1.0" encoding="utf-8"?>
<!-- Generator: Adobe Illustrator 26.0.3, SVG Export Plug-In . SVG Version: 6.00 Build 0)  -->
<svg version="1.1" id="레이어_1" xmlns="http://www.w3.org/2000/svg" xmlns:xlink="http://www.w3.org/1999/xlink" x="0px"
	 y="0px" viewBox="0 0 24 24" style="enable-background:new 0 0 24 24;" xml:space="preserve">
<style type="text/css">
	.st0{fill:#FFFFFF;}
</style>
<g>
	<g>
		<path class="st0" d="M21.1,7.7c-0.6,0-1-0.4-1-1L20,4l-2.7,0c-0.6,0-1-0.4-1-1c0-0.6,0.4-1,1-1h0L21,2c0.6,0,1,0.4,1,1l0,3.7
			C22.1,7.3,21.6,7.7,21.1,7.7L21.1,7.7z"/>
		<path class="st0" d="M6.7,22.1C6.7,22.1,6.7,22.1,6.7,22.1l-3.7,0c-0.6,0-1-0.4-1-1l0-3.7c0-0.6,0.4-1,1-1c0,0,0,0,0,0
			c0.6,0,1,0.4,1,1l0,2.7l2.7,0c0.6,0,1,0.4,1,1S7.2,22.1,6.7,22.1z"/>
		<path class="st0" d="M3,7.6c-0.6,0-1-0.4-1-1l0-3.7c0-0.3,0.1-0.5,0.3-0.7C2.5,2,2.8,1.9,3,1.9c0,0,0,0,0,0l3.7,0c0.6,0,1,0.4,1,1
			c0,0.6-0.4,1-1,1c0,0,0,0,0,0L4,3.9l0,2.7C4,7.1,3.6,7.6,3,7.6C3,7.6,3,7.6,3,7.6z"/>
		<path class="st0" d="M21.1,21.9L21.1,21.9l-3.7,0c-0.6,0-1-0.4-1-1c0-0.6,0.4-1,1-1h0l2.7,0l0-2.7c0-0.6,0.4-1,1-1h0
			c0.6,0,1,0.4,1,1l0,3.7c0,0.3-0.1,0.5-0.3,0.7S21.4,21.9,21.1,21.9z"/>
	</g>
</g>
</svg>
