<?xml version="1.0" encoding="utf-8"?>
<!-- Generator: Adobe Illustrator 26.0.2, SVG Export Plug-In . SVG Version: 6.00 Build 0)  -->
<svg version="1.1" id="레이어_1" xmlns="http://www.w3.org/2000/svg" xmlns:xlink="http://www.w3.org/1999/xlink" x="0px"
	 y="0px" viewBox="0 0 24 24" style="enable-background:new 0 0 24 24;" xml:space="preserve">
<style type="text/css">
	.st0{fill:#999999;}
</style>
<path class="st0" d="M20.5,7h-17c-0.6,0-1-0.4-1-1s0.4-1,1-1h17c0.6,0,1,0.4,1,1S21.1,7,20.5,7z M21.5,12c0-0.6-0.4-1-1-1h-17
	c-0.6,0-1,0.4-1,1s0.4,1,1,1h17C21.1,13,21.5,12.6,21.5,12z M21.5,18c0-0.6-0.4-1-1-1h-17c-0.6,0-1,0.4-1,1s0.4,1,1,1h17
	C21.1,19,21.5,18.6,21.5,18z"/>
</svg>
