<svg width="21" height="22" viewBox="0 0 21 22" fill="none" xmlns="http://www.w3.org/2000/svg">
<path d="M7.27945 3.75378C5.05648 3.75378 3.25378 5.55648 3.25378 7.77945V14.2205C3.25378 16.4435 5.05648 18.2462 7.27945 18.2462H13.7205C15.9435 18.2462 17.7462 16.4435 17.7462 14.2205V7.77945C17.7462 5.55648 15.9435 3.75378 13.7205 3.75378H7.27945ZM15.3308 5.36405C15.7752 5.36405 16.1359 5.72475 16.1359 6.16919C16.1359 6.61362 15.7752 6.97432 15.3308 6.97432C14.8864 6.97432 14.5257 6.61362 14.5257 6.16919C14.5257 5.72475 14.8864 5.36405 15.3308 5.36405ZM10.5 6.97432C12.723 6.97432 14.5257 8.77701 14.5257 11C14.5257 13.223 12.723 15.0257 10.5 15.0257C8.27701 15.0257 6.47432 13.223 6.47432 11C6.47432 8.77701 8.27701 6.97432 10.5 6.97432ZM10.5 8.58459C9.85938 8.58459 9.24502 8.83906 8.79204 9.29204C8.33906 9.74502 8.08459 10.3594 8.08459 11C8.08459 11.6406 8.33906 12.255 8.79204 12.7079C9.24502 13.1609 9.85938 13.4154 10.5 13.4154C11.1406 13.4154 11.755 13.1609 12.2079 12.7079C12.6609 12.255 12.9154 11.6406 12.9154 11C12.9154 10.3594 12.6609 9.74502 12.2079 9.29204C11.755 8.83906 11.1406 8.58459 10.5 8.58459Z" fill="white"/>
</svg>
