<?xml version="1.0" encoding="utf-8"?>
<!-- Generator: Adobe Illustrator 26.0.2, SVG Export Plug-In . SVG Version: 6.00 Build 0)  -->
<svg version="1.1" id="레이어_1" xmlns="http://www.w3.org/2000/svg" xmlns:xlink="http://www.w3.org/1999/xlink" x="0px"
	 y="0px" viewBox="0 0 24 24" style="enable-background:new 0 0 24 24;" xml:space="preserve">
<path d="M19.4,6H4.6C4.3,6,4,6.2,4,6.5v10.9C4,17.8,4.3,18,4.6,18h14.9c0.3,0,0.6-0.2,0.6-0.5V6.5C20,6.2,19.7,6,19.4,6z M17.7,7.2
	L12,11.5L6.3,7.2H17.7z M18.7,7.9v8.9H5.3V8.3V7.9v0l6.1,4.5c0.2,0.1,0.4,0.2,0.6,0.2c0.2,0,0.4-0.1,0.6-0.2L18.7,7.9L18.7,7.9
	L18.7,7.9L18.7,7.9z"/>
</svg>
