<svg width="22" height="22" viewBox="0 0 22 22" fill="none" xmlns="http://www.w3.org/2000/svg">
<path d="M21.3316 19.8868L17.3649 15.9318C18.6447 14.3014 19.3392 12.2879 19.3366 10.2152C19.3366 8.36921 18.7892 6.56471 17.7636 5.02985C16.7381 3.49499 15.2804 2.29872 13.575 1.5923C11.8695 0.88588 9.99291 0.701049 8.18242 1.06118C6.37193 1.42131 4.70889 2.31022 3.4036 3.61551C2.09831 4.9208 1.20939 6.58384 0.849263 8.39433C0.489135 10.2048 0.673966 12.0814 1.38038 13.7869C2.0868 15.4923 3.28308 16.95 4.81794 17.9756C6.3528 19.0011 8.1573 19.5485 10.0033 19.5485C12.076 19.5511 14.0895 18.8567 15.7199 17.5768L19.6749 21.5435C19.7834 21.6529 19.9124 21.7397 20.0546 21.7989C20.1968 21.8581 20.3492 21.8886 20.5033 21.8886C20.6573 21.8886 20.8098 21.8581 20.9519 21.7989C21.0941 21.7397 21.2231 21.6529 21.3316 21.5435C21.4409 21.435 21.5277 21.306 21.587 21.1638C21.6462 21.0217 21.6767 20.8692 21.6767 20.7152C21.6767 20.5612 21.6462 20.4087 21.587 20.2665C21.5277 20.1243 21.4409 19.9953 21.3316 19.8868ZM3.00326 10.2152C3.00326 8.8307 3.4138 7.47733 4.18297 6.32618C4.95214 5.17504 6.04539 4.27783 7.32448 3.74802C8.60356 3.2182 10.011 3.07958 11.3689 3.34968C12.7268 3.61977 13.974 4.28646 14.953 5.26543C15.932 6.24439 16.5987 7.49167 16.8688 8.84954C17.1389 10.2074 17.0002 11.6149 16.4704 12.894C15.9406 14.173 15.0434 15.2663 13.8923 16.0355C12.7411 16.8046 11.3877 17.2152 10.0033 17.2152C8.14674 17.2152 6.36627 16.4777 5.05351 15.1649C3.74076 13.8522 3.00326 12.0717 3.00326 10.2152Z" fill="white"/>
</svg>
