<?xml version="1.0" encoding="utf-8"?>
<!-- Generator: Adobe Illustrator 26.0.2, SVG Export Plug-In . SVG Version: 6.00 Build 0)  -->
<svg version="1.1" id="레이어_1" xmlns="http://www.w3.org/2000/svg" xmlns:xlink="http://www.w3.org/1999/xlink" x="0px"
	 y="0px" viewBox="0 0 24 24" style="enable-background:new 0 0 24 24;" xml:space="preserve">
<style type="text/css">
	.st0{fill:#222222;}
</style>
<path class="st0" d="M22.2,20.5l-4-4c1.3-1.6,2-3.6,2-5.7c0-1.8-0.5-3.7-1.6-5.2c-1-1.5-2.5-2.7-4.2-3.4C12.7,1.5,10.8,1.3,9,1.7
	C7.2,2,5.5,2.9,4.2,4.2S2,7.2,1.7,9c-0.4,1.8-0.2,3.7,0.5,5.4c0.7,1.7,1.9,3.2,3.4,4.2c1.5,1,3.3,1.6,5.2,1.6c2.1,0,4.1-0.7,5.7-2
	l4,4c0.1,0.1,0.2,0.2,0.4,0.3c0.1,0.1,0.3,0.1,0.4,0.1c0.2,0,0.3,0,0.4-0.1c0.1-0.1,0.3-0.1,0.4-0.3c0.1-0.1,0.2-0.2,0.3-0.4
	c0.1-0.1,0.1-0.3,0.1-0.4c0-0.2,0-0.3-0.1-0.4C22.4,20.7,22.3,20.6,22.2,20.5z M3.8,10.8c0-1.4,0.4-2.7,1.2-3.9
	c0.8-1.2,1.9-2,3.1-2.6c1.3-0.5,2.7-0.7,4-0.4c1.4,0.3,2.6,0.9,3.6,1.9s1.6,2.2,1.9,3.6c0.3,1.4,0.1,2.8-0.4,4
	c-0.5,1.3-1.4,2.4-2.6,3.1c-1.2,0.8-2.5,1.2-3.9,1.2c-1.9,0-3.6-0.7-4.9-2.1C4.6,14.5,3.8,12.7,3.8,10.8z"/>
</svg>
