<?xml version="1.0" encoding="utf-8"?>
<!-- Generator: Adobe Illustrator 26.0.2, SVG Export Plug-In . SVG Version: 6.00 Build 0)  -->
<svg version="1.1" id="레이어_1" xmlns="http://www.w3.org/2000/svg" xmlns:xlink="http://www.w3.org/1999/xlink" x="0px"
	 y="0px" viewBox="0 0 24 24" style="enable-background:new 0 0 24 24;" xml:space="preserve">
<style type="text/css">
	.st0{fill:#999999;}
</style>
<path class="st0" d="M17.3,15c-0.9,0-1.7,0.5-2.1,1.1l-5.9-3.2c0.1-0.2,0.1-0.4,0.1-0.6c0-0.5-0.2-0.8-0.3-1.2l6.2-3.3
	C15.7,8.5,16.4,9,17.3,9C18.8,9,20,7.7,20,6.3s-1.2-2.7-2.7-2.7s-2.7,1.2-2.7,2.7c0,0.3,0.1,0.6,0.2,0.9l-6.2,3.4
	C8.1,10,7.4,9.7,6.7,9.7C5.2,9.7,4,10.9,4,12.4S5.2,15,6.7,15c1,0,1.8-0.5,2.3-1.4l5.9,3.1c-0.1,0.3-0.2,0.6-0.2,0.9
	c0,1.4,1.2,2.7,2.7,2.7s2.7-1.2,2.7-2.7C20,16.3,18.8,15,17.3,15z"/>
</svg>
