<svg width="43" height="24" viewBox="0 0 43 24" fill="none" xmlns="http://www.w3.org/2000/svg">
<path opacity="0.2" d="M21.4605 2L22.5368 0.955182C22.2543 0.664204 21.866 0.5 21.4605 0.5C21.055 0.5 20.6667 0.664204 20.3842 0.955182L21.4605 2ZM39.8447 23.0911C40.4217 23.6855 41.3714 23.6996 41.9658 23.1226C42.5602 22.5455 42.5743 21.5959 41.9973 21.0015L39.8447 23.0911ZM0.92373 21.0015C0.346693 21.5959 0.360775 22.5455 0.955182 23.1226C1.54959 23.6996 2.49923 23.6855 3.07627 23.0911L0.92373 21.0015ZM20.3842 3.04482L39.8447 23.0911L41.9973 21.0015L22.5368 0.955182L20.3842 3.04482ZM3.07627 23.0911L22.5368 3.04482L20.3842 0.955182L0.92373 21.0015L3.07627 23.0911Z" fill="#333333"/>
</svg>
