<svg width="21" height="22" viewBox="0 0 21 22" fill="none" xmlns="http://www.w3.org/2000/svg">
<path d="M10.7429 4.17761C8.17875 4.17761 4.85071 4.82007 4.85071 4.82007L4.84234 4.82964C3.67451 5.01641 2.77979 6.01992 2.77979 7.24034V10.9156V10.9168V14.5909V14.5921C2.78092 15.1749 2.98981 15.7383 3.36893 16.181C3.74805 16.6237 4.27257 16.9168 4.84832 17.0076L4.85071 17.0111C4.85071 17.0111 8.17875 17.6548 10.7429 17.6548C13.307 17.6548 16.635 17.0111 16.635 17.0111L16.6362 17.0099C17.2126 16.9194 17.7377 16.6261 18.1171 16.1828C18.4965 15.7396 18.7053 15.1755 18.7059 14.5921V14.5909V10.9168V10.9156V7.24034C18.7051 6.65727 18.4963 6.09362 18.1172 5.65066C17.738 5.20771 17.2134 4.91447 16.6374 4.82366L16.635 4.82007C16.635 4.82007 13.307 4.17761 10.7429 4.17761ZM8.90523 8.09694L13.8056 10.9156L8.90523 13.7343V8.09694Z" fill="white"/>
</svg>
