<?xml version="1.0" encoding="utf-8"?>
<!-- Generator: Adobe Illustrator 26.0.3, SVG Export Plug-In . SVG Version: 6.00 Build 0)  -->
<svg version="1.1" id="레이어_1" xmlns="http://www.w3.org/2000/svg" xmlns:xlink="http://www.w3.org/1999/xlink" x="0px"
	 y="0px" viewBox="0 0 24 24" style="enable-background:new 0 0 24 24;" xml:space="preserve">
<style type="text/css">
	.st0{fill:#FFFFFF;}
</style>
<g>
	<path class="st0" d="M10.2,20.4c-5.3,0-9.7-4.3-9.7-9.7S4.9,1,10.2,1c5.3,0,9.7,4.3,9.7,9.7S15.5,20.4,10.2,20.4z M10.2,2.9
		c-4.3,0-7.8,3.5-7.8,7.8c0,4.3,3.5,7.8,7.8,7.8S18,15,18,10.7C18,6.4,14.5,2.9,10.2,2.9z"/>
	<path class="st0" d="M22.5,23c-0.2,0-0.5-0.1-0.6-0.3l-5.7-5.6c-0.4-0.4-0.4-0.9,0-1.3c0.4-0.4,0.9-0.4,1.3,0l5.7,5.6
		c0.4,0.4,0.4,0.9,0,1.3C23,22.9,22.8,23,22.5,23z"/>
	<path class="st0" d="M14.8,11.6H5.6c-0.5,0-0.9-0.4-0.9-0.9c0-0.5,0.4-0.9,0.9-0.9h9.2c0.5,0,0.9,0.4,0.9,0.9
		C15.7,11.2,15.3,11.6,14.8,11.6z"/>
</g>
</svg>
