<?xml version="1.0" encoding="UTF-8"?>
<svg width="42px" height="23px" viewBox="0 0 42 23" version="1.1" xmlns="http://www.w3.org/2000/svg" xmlns:xlink="http://www.w3.org/1999/xlink">
    <title>accordionArrBlack</title>
    <g id="accordionArrBlack" stroke="none" stroke-width="1" fill="none" fill-rule="evenodd">
        <g transform="translate(20.960496, 11.523152) scale(1, -1) translate(-20.960496, -11.523152) translate(-0.000000, 0.000000)" fill="#333333" fill-rule="nonzero" id="Shape">
            <path d="M20.9605014,1.5 L22.0368014,0.455186 C21.7543014,0.164206 21.3660014,0 20.9605014,0 C20.5550014,0 20.1667014,0.164206 19.8842014,0.455186 L20.9605014,1.5 Z M39.3447014,22.591076 C39.9217014,23.185576 40.8714014,23.199576 41.4658014,22.622576 C42.0602014,22.045576 42.0743014,21.095876 41.4973014,20.501476 L39.3447014,22.591076 Z M0.423731419,20.501476 C-0.153305581,21.095876 -0.139223581,22.045576 0.455183419,22.622576 C1.04959142,23.199576 1.99923142,23.185576 2.57627142,22.591076 L0.423731419,20.501476 Z M19.8842014,2.544816 L39.3447014,22.591076 L41.4973014,20.501476 L22.0368014,0.455186 L19.8842014,2.544816 Z M2.57627142,22.591076 L22.0368014,2.544816 L19.8842014,0.455186 L0.423731419,20.501476 L2.57627142,22.591076 Z"></path>
        </g>
    </g>
</svg>