<?xml version="1.0" encoding="utf-8"?>
<!-- Generator: Adobe Illustrator 26.0.2, SVG Export Plug-In . SVG Version: 6.00 Build 0)  -->
<svg version="1.1" id="레이어_1" xmlns="http://www.w3.org/2000/svg" xmlns:xlink="http://www.w3.org/1999/xlink" x="0px"
	 y="0px" viewBox="0 0 24 24" style="enable-background:new 0 0 24 24;" xml:space="preserve">
<style type="text/css">
	.st0{fill:#707070;}
</style>
<path class="st0" d="M6.6,12c0.4,0.4,1,0.4,1.4,0l3-3v8.3c0,0.6,0.4,1,1,1s1-0.4,1-1V9.1l3,3c0.4,0.4,1,0.4,1.4,0s0.4-1,0-1.4
	L12.7,6c0,0,0,0,0,0c-0.1-0.1-0.2-0.2-0.3-0.2c-0.1-0.1-0.3-0.1-0.4-0.1c0,0,0,0,0,0s0,0,0,0c0,0,0,0,0,0c-0.1,0-0.3,0-0.4,0.1
	c-0.1,0.1-0.2,0.1-0.3,0.2l-4.7,4.7C6.2,11,6.2,11.6,6.6,12z"/>
</svg>
