<?xml version="1.0" encoding="utf-8"?>
<!-- Generator: Adobe Illustrator 26.0.2, SVG Export Plug-In . SVG Version: 6.00 Build 0)  -->
<svg version="1.1" id="레이어_1" xmlns="http://www.w3.org/2000/svg" xmlns:xlink="http://www.w3.org/1999/xlink" x="0px"
	 y="0px" viewBox="0 0 24 24" style="enable-background:new 0 0 24 24;" xml:space="preserve">
<style type="text/css">
	.st0{fill:#666666;}
</style>
<path class="st0" d="M9.5,18.6C9.5,18.6,9.5,18.6,9.5,18.6c0.1,0,0.2-0.1,0.2-0.1l8.7-8.8c0,0,0,0,0,0l1-1c0.8-0.8,0.8-2,0-2.8v0
	l-1.3-1.4c-0.7-0.8-2.1-0.8-2.8,0l-1,1c0,0,0,0,0,0l-8.6,8.8c-0.1,0.1-0.2,0.2-0.2,0.3L4,19.3c-0.1,0.2,0,0.4,0.1,0.6
	C4.3,20,4.4,20.1,4.6,20v0.1h15.1V19H8.3L9.5,18.6z M16.1,5.3c0.3-0.3,0.9-0.3,1.2,0l1.3,1.4C19,7,19,7.5,18.6,7.9L18,8.5l-2.5-2.6
	L16.1,5.3z M14.7,6.7l2.5,2.6l-7.9,8l-1.7-1.7l-0.9-0.9L14.7,6.7z M5.4,18.6l0.9-2.9l2,2L5.4,18.6z"/>
</svg>
