<?xml version="1.0" encoding="utf-8"?>
<!-- Generator: Adobe Illustrator 26.0.2, SVG Export Plug-In . SVG Version: 6.00 Build 0)  -->
<svg version="1.1" id="레이어_1" xmlns="http://www.w3.org/2000/svg" xmlns:xlink="http://www.w3.org/1999/xlink" x="0px"
	 y="0px" viewBox="0 0 24 24" style="enable-background:new 0 0 24 24;" xml:space="preserve">
<path d="M7.8,1.5c0.4,0,0.8,0.1,1.1,0.3L9.1,2l2.4,1.8h8.7c0.9,0,1.8,0.3,2.5,0.9C23.4,5.3,23.8,6.1,24,7l0,0.2l0,0.2v11.2
	c0,1-0.4,1.9-1,2.6c-0.7,0.7-1.5,1.1-2.5,1.2l-0.2,0H3.8c-1,0-1.9-0.4-2.6-1C0.5,20.8,0.1,19.9,0,19l0-0.2V5.2c0-1,0.4-1.9,1-2.6
	C1.7,2,2.6,1.6,3.5,1.5l0.2,0H7.8z M9.2,7.6C8.9,7.9,8.4,8.2,7.8,8.2l-0.2,0l-6.1,0v10.5c0,0.6,0.2,1.1,0.6,1.5
	C2.5,20.7,3,20.9,3.5,21l0.2,0h16.5c0.6,0,1.1-0.2,1.5-0.6c0.4-0.4,0.7-0.9,0.7-1.4l0-0.2V7.5c0-0.6-0.2-1.1-0.6-1.5
	c-0.4-0.4-0.9-0.7-1.4-0.7l-0.2,0h-8.8L9.2,7.6z M7.8,3h-4C3.2,3,2.7,3.2,2.2,3.6S1.6,4.5,1.5,5l0,0.2v1.5l6.1,0
	c0.2,0,0.3-0.1,0.5-0.2l0.1-0.1l1.9-2L8.2,3.2C8.1,3.1,8,3,7.9,3L7.8,3L7.8,3z"/>
</svg>
