<?xml version="1.0" encoding="utf-8"?>
<!-- Generator: Adobe Illustrator 26.0.3, SVG Export Plug-In . SVG Version: 6.00 Build 0)  -->
<svg version="1.1" id="레이어_1" xmlns="http://www.w3.org/2000/svg" xmlns:xlink="http://www.w3.org/1999/xlink" x="0px"
	 y="0px" viewBox="0 0 35 35" style="enable-background:new 0 0 35 35;" xml:space="preserve">
<style type="text/css">
	.st0{fill:#333333;}
</style>
<path class="st0" d="M17.3,27c-7,0-13.3-5.8-15.6-8.9c-0.2-0.2-0.2-0.6,0-0.9c2-3.1,7.7-9.1,15.7-9.1c7.9,0,14.2,5.9,16.5,9.1
	c0.2,0.3,0.2,0.7,0,0.9C31.1,21.2,24.3,27,17.3,27z M3.2,17.6c2.4,3,8,7.9,14.1,7.9c6.1,0,12.2-4.9,14.9-7.9c-2.3-3-8-8-14.9-8
	C10.4,9.6,5.2,14.6,3.2,17.6z"/>
<path class="st0" d="M17.5,22.7c-3.1,0-5.6-2.5-5.6-5.6s2.5-5.6,5.6-5.6s5.6,2.5,5.6,5.6S20.6,22.7,17.5,22.7z M17.5,13
	c-2.3,0-4.1,1.8-4.1,4.1s1.8,4.1,4.1,4.1s4.1-1.8,4.1-4.1S19.8,13,17.5,13z"/>
</svg>
